<?xml version="1.0" encoding="UTF-8"?>
<svg viewBox="0 0 228.07576 338.62469" xmlns="http://www.w3.org/2000/svg">
 <g transform="translate(-190.88 -269.32)">
  <g fill="#b5ff1b" font-family="Copperplate Gothic Bold" font-size="440.48" stroke="#00c100" stroke-width="13">
   <path d="m197.38 365.72c-2e-5 -13.621 4.3732-27.422 13.12-41.402s21.508-25.558 38.283-34.735 36.348-13.765 58.716-13.765c20.791 3.2e-4 39.144 3.8358 55.059 11.507s28.211 18.102 36.885 31.294 13.012 27.53 13.012 43.015c-2.3e-4 12.188-2.4736 22.87-7.4201 32.046s-10.826 17.099-17.636 23.766-19.034 17.887-36.67 33.659c-4.8752 4.445-8.7824 8.3522-11.722 11.722s-5.1261 6.4524-6.5598 9.2483-2.5452 5.5921-3.3337 8.388-1.9717 7.707-3.5488 14.733c-2.7244 14.912-11.256 22.368-25.594 22.368-7.4561 8e-5 -13.729-2.4374-18.819-7.3126-5.0902-4.875-7.6353-12.116-7.6352-21.723-9e-5 -12.044 1.8639-22.475 5.592-31.294s8.6746-16.561 14.84-23.228 14.482-14.589 24.949-23.766c9.1764-8.0293 15.808-14.087 19.894-18.174s7.5275-8.6387 10.324-13.657 4.1938-10.467 4.194-16.346c-1.8e-4 -11.47-4.2658-21.149-12.797-29.035s-19.536-11.829-33.014-11.829c-15.772 2.8e-4 -27.386 3.9792-34.842 11.937s-13.765 19.68-18.927 35.165c-4.8751 16.203-14.123 24.304-27.745 24.304-8.0295 2e-4 -14.804-2.8316-20.325-8.4955s-8.2804-11.793-8.2804-18.389zm104.96 235.72c-8.7465 0-16.382-2.8318-22.906-8.4955s-9.786-13.586-9.7859-23.766c-9e-5 -9.0332 3.1544-16.632 9.4633-22.798s14.052-9.2482 23.228-9.2483c9.033 6e-5 16.632 3.0828 22.798 9.2483s9.2481 13.765 9.2483 22.798c-1.5e-4 10.037-3.2263 17.923-9.6784 23.658s-13.908 8.603-22.368 8.603z" fill="#b5ff1b" stroke="#00c100" stroke-width="13"/>
  </g>
  <path d="m203.56 361.7c-1.0292-0.80044 5.9828-35.545 31.602-55.188 19.649-15.066 32.735-18.355 45-21.429 9.4382-2.3653 24.812-3.333 36.429-2.1429 0 0-25.678 9.5284-36.551 13.505-11.219 4.1031-29.153 10.343-39.821 19.556s-36.658 45.699-36.658 45.699z" fill="#ff0"/>
  <path d="m280.51 585.12s-13.427-23.907 7.1352-36.911c19.098-12.078 32.621 2.7869 32.621 2.7869s-18.057 2.593-25.401 7.8034c-9.1107 6.4638-14.355 26.321-14.355 26.321z" fill="#ff0"/>
 </g>
</svg>
